<svg width="53" height="48" viewBox="0 0 53 48" fill="none" xmlns="http://www.w3.org/2000/svg">
<rect y="6" width="42" height="42" rx="21" fill="black"/>
<path d="M27.2839 28.293C27.2078 28.5723 26.9539 28.75 26.6746 28.75H19.2351L19.4128 29.5625H26.2175C26.5984 29.5625 26.9031 29.9434 26.8015 30.3242L26.6746 30.9336C27.157 31.1621 27.4871 31.6445 27.4871 32.2031C27.4871 32.9902 26.8269 33.625 26.0652 33.625C25.2781 33.625 24.6433 32.9902 24.6433 32.2031C24.6433 31.8223 24.7957 31.4668 25.0496 31.1875H19.7429C19.9968 31.4668 20.1746 31.8223 20.1746 32.2031C20.1746 32.9902 19.5144 33.625 18.7527 33.625C17.9656 33.625 17.3308 32.9902 17.3308 32.2031C17.3308 31.6953 17.6101 31.2383 18.0418 30.9844L16.239 22.25H14.4871C14.1316 22.25 13.8777 21.9961 13.8777 21.6406V21.2344C13.8777 20.9043 14.1316 20.625 14.4871 20.625H17.0769C17.3562 20.625 17.6101 20.8535 17.6863 21.1328L17.9148 22.25H27.8679C28.2742 22.25 28.5535 22.6309 28.4773 23.0117L27.2839 28.293Z" fill="white"/>
<rect x="29.28" y="1" width="22" height="22" rx="11" fill="white"/>
<rect x="29.28" y="1" width="22" height="22" rx="11" stroke="black" stroke-width="2"/>
<path d="M43.2719 11.7051C43.2719 12.4004 43.2192 13.0215 43.1137 13.5684C43.0082 14.1152 42.8422 14.5781 42.6156 14.957C42.3891 15.3359 42.0961 15.625 41.7367 15.8242C41.3774 16.0195 40.9457 16.1172 40.4418 16.1172C39.8051 16.1172 39.2777 15.9434 38.8598 15.5957C38.4457 15.248 38.1352 14.7461 37.9281 14.0898C37.725 13.4297 37.6234 12.6348 37.6234 11.7051C37.6234 10.791 37.7152 10.0059 37.8988 9.34961C38.0863 8.68945 38.3871 8.18359 38.8012 7.83203C39.2152 7.47656 39.7621 7.29883 40.4418 7.29883C41.0863 7.29883 41.6176 7.47461 42.0356 7.82617C42.4535 8.17383 42.7641 8.67773 42.9672 9.33789C43.1703 9.99414 43.2719 10.7832 43.2719 11.7051ZM38.602 11.7051C38.602 12.502 38.6625 13.166 38.7836 13.6973C38.9047 14.2285 39.1 14.627 39.3695 14.8926C39.643 15.1543 40.0004 15.2852 40.4418 15.2852C40.8832 15.2852 41.2387 15.1543 41.5082 14.8926C41.7817 14.6309 41.9789 14.2344 42.1 13.7031C42.225 13.1719 42.2875 12.5059 42.2875 11.7051C42.2875 10.9199 42.227 10.2637 42.1059 9.73633C41.9848 9.20508 41.7895 8.80664 41.5199 8.54102C41.2504 8.27148 40.891 8.13672 40.4418 8.13672C39.9926 8.13672 39.6332 8.27148 39.3637 8.54102C39.0942 8.80664 38.8988 9.20508 38.7777 9.73633C38.6606 10.2637 38.602 10.9199 38.602 11.7051Z" fill="black"/>
</svg>
