<svg width="21" height="16" viewBox="0 0 21 16" fill="none" xmlns="http://www.w3.org/2000/svg">
<path d="M18.9062 7.5L20.3438 8.9375C20.5312 9.125 20.5312 9.46875 20.3438 9.65625L19.625 10.375C19.4375 10.5625 19.0938 10.5625 18.9062 10.375L17.5 8.9375L16.0625 10.375C15.875 10.5625 15.5312 10.5625 15.3438 10.375L14.625 9.65625C14.4375 9.46875 14.4375 9.125 14.625 8.9375L16.0625 7.5L14.625 6.09375C14.4375 5.90625 14.4375 5.5625 14.625 5.375L15.3438 4.65625C15.5312 4.46875 15.875 4.46875 16.0625 4.65625L17.5 6.09375L18.9062 4.65625C19.0938 4.46875 19.4375 4.46875 19.625 4.65625L20.3438 5.375C20.5312 5.5625 20.5312 5.90625 20.3438 6.09375L18.9062 7.5ZM7.5 8C5.28125 8 3.5 6.21875 3.5 4C3.5 1.8125 5.28125 0 7.5 0C9.6875 0 11.5 1.8125 11.5 4C11.5 6.21875 9.6875 8 7.5 8ZM10.2812 9C12.5938 9 14.5 10.9062 14.5 13.2188V14.5C14.5 15.3438 13.8125 16 13 16H2C1.15625 16 0.5 15.3438 0.5 14.5V13.2188C0.5 10.9062 2.375 9 4.6875 9H5.21875C5.90625 9.34375 6.6875 9.5 7.5 9.5C8.3125 9.5 9.0625 9.34375 9.75 9H10.2812Z" fill="#333333"/>
</svg>
